<svg xmlns="http://www.w3.org/2000/svg" viewBox="0 0 994.56 673.76"><defs><style>.cls-1{fill:#c20031;}.cls-2{fill:#383536;}.cls-3{fill:#393637;}</style></defs><title>lg</title><g id="Layer_2" data-name="Layer 2"><g id="Layer_1-2" data-name="Layer 1"><polygon class="cls-1" points="994.56 155.52 993.86 155.54 880.98 212.13 746.54 135.22 746.5 134.06 844.09 81.13 844.33 81.12 994.56 0 994.56 155.52 994.56 155.52"/><path class="cls-2" d="M0,298.56H85.67c.43-.68,1.12-.4,1.72-.5s.9-.46,1.48-.53a2.65,2.65,0,0,0,1.56-.83,11.92,11.92,0,0,1,1.36-1.35c.89-.7,1.05-1.83,1.69-2.67,0-.06.11-.12.12-.19.09-.6-.28-1.29.39-1.76,0-.63.09-1.25.09-1.88q0-32.46,0-64.93v-9.16q0-2.19,0-4.38c0-1-.37-3,1.23-3H114c1.07,0,.69,1.18.69,2q0,2.17,0,4.34,0,4.2,0,8.4,0,8.5,0,17,0,17.1,0,34.2,0,9.6,0,19.2c0,.76.26,1.55-.25,2.29s0,1.47-.26,2a2.81,2.81,0,0,0-.45,1.19c0,.26.12.44,0,.69-.18.5-.43.56-.49,1.11s-.3.62-.48,1.1c-.08.21,0,.41,0,.62a4.18,4.18,0,0,1-.45,1c-.23.47-.51.91-.75,1.37s-.46.93-.67,1.4c0,.07,0,.19,0,.23a9,9,0,0,0-1.24,1.27,8.72,8.72,0,0,1-1.13,1.59c-1.12,1.14-2.24,2.29-3.4,3.38-.45.42-.72,1.11-1.42,1.19s-.77.64-1.2.9c-.24.14-.51.17-.75.33s-.53.51-.85.69c-.51.3-1.09.47-1.58.81s-1.34-.16-1.66.64c-.65-.11-1,.76-1.73.52-.33-.1-.68.6-1.23.44s-1,.32-1.49.45-1,0-1.43,0-1,.65-1.73.49a4.1,4.1,0,0,0-1.89,0c-.46.14-.74.57-1.27.46a18.3,18.3,0,0,0-3.69,0H0Z"/><polygon class="cls-1" points="730.08 339.92 730.01 536.45 492.41 673.72 490.65 673.76 377.72 617.29 376.79 615.86 376.8 462.75 378.25 462.01 488.61 514.79 490.26 514.62 588.72 457.92 589.45 456.78 589.62 225.74 729.55 143.04 730.08 143.37 730.08 339.92 730.08 339.92"/><polygon class="cls-1" points="740.16 335.9 740.17 142.23 740.4 141.63 741.33 141.62 880.28 223.92 880.81 224.89 880.81 425.03 740.58 530.2 740.16 530.04 740.16 335.9 740.16 335.9"/><polygon class="cls-1" points="591.06 212.17 477.38 155.54 476.63 154.69 476.64 0.86 477.4 0.47 477.85 0.52 725.02 134.4 725.18 134.72 591.64 212.09 591.06 212.17 591.06 212.17"/><path class="cls-2" d="M213.66,396H170.06c-4.09,0-8.23-.17-12.32,0-.11,0-.27.18-.29.3a16.4,16.4,0,0,0,0,3.09v18.2a12.35,12.35,0,0,0,0,2.93c.07.28.35.5.45.77s0,.5,0,.71a3.54,3.54,0,0,0,2,2.31c.28.08.5.42.77.44a2.32,2.32,0,0,1,1.28.44c.31.23.92.06,1.4.06h82.52c7.77,0,15.53-.05,23.3,0,.4,0,.51.13.52.58.14,6.39,0,12.8,0,19.2,0,.86,0,.86-1,.86-14,.05-28.07,0-42.1,0H161.06c-.82,0-1.77.41-2.44-.46l-2.39,0c-.51-.78-1.3-.41-2-.44s-1-.84-1.72-.5a4.14,4.14,0,0,0-1.47-.54c-.49-.12-.92-.52-1.5-.42-.29-.41-.84-.37-1.16-.66s-1-.32-1.38-.77c-.12-.15-.51-.1-.6-.24-.43-.72-1.36-.71-1.87-1.34s-1.23-1.26-1.85-1.88l-1.53-1.53c.06-.5-.26-.74-.56-1.07a5,5,0,0,1-.77-1.26,20.82,20.82,0,0,1-1.73-3.6c-.68-.31-.1-1.11-.52-1.45a1.15,1.15,0,0,1-.3-1.31c.13-.49-.35-.64-.49-1a7,7,0,0,1,0-1.88c-.78-.61-.35-1.47-.46-2.21-.08-.52.19-1.09-.37-1.54-.17-.13-.1-.59-.11-.9-.1-16.37,0-32.74,0-49.11q0-7,0-14c0-.75-.32-1.57.38-2.25.17-.16.05-.6.09-.91a8.17,8.17,0,0,1,.26-2.29c.26-.66,0-1.43.27-2a2.55,2.55,0,0,0,.43-1.51c.89-.32.21-1.31.8-1.85.25-.23.22-.59.29-.9a3.09,3.09,0,0,1,.39-.86c.28-.52.42-1.25.88-1.65-.17-.92,1.19-1.06,1-2a12.91,12.91,0,0,0,2.08-2.56,3.69,3.69,0,0,1,1.06-.93c.46-.26,1-.4,1.24-.9s1.12-.51,1.5-1,1.15-.7,1.72-1.05a12.82,12.82,0,0,0,1.58-.82c.44-.36,1.08.11,1.5-.48.3-.42,1,.08,1.48-.5.29-.38,1.11.12,1.44-.53,0,0,.14-.05.21-.06.68-.11,1.39.21,2.05-.27s1.38-.14,2.07-.21a5.43,5.43,0,0,0,1,0,.58.58,0,0,0,.18-.13l.34-.33a.65.65,0,0,1,.24,0c14-.13,27.93,0,41.89,0h42.94c8,0,16.08-.05,24.12,0,.94,0,.5,2.85.5,3.48q0,2.6,0,5.2,0,5.2,0,10.4c0,1.33-.14,1.08-1,1.08-26.45.25-52.91,0-79.36,0H167c-.77,0-1.64-.28-2.31.19s-1.4.08-2,.3a7.71,7.71,0,0,0-2.18,1.07,3.92,3.92,0,0,0-1.66,1.92c-.22.77-.93,1.35-.94,2.25,0,.52-.64.85-.49,1.49a18.91,18.91,0,0,1,0,4q0,2.1,0,4.2c0,1.21,0,2.43,0,3.64a12.92,12.92,0,0,0,.19,3.88l3.34,0c14.12.1,28.25,0,42.37,0h54.35c3.91,0,7.84-.13,11.75,0,.11,0,.27.16.32.28a8.4,8.4,0,0,1,0,2.44V380q0,2.56,0,5.12,0,5.12,0,10.23c0,.65,0,.66-.67.67-14.35.12-28.7,0-43.05,0Z"/><path class="cls-3" d="M496.11,270.24H447.92c-2,0-4-.13-6,0-.1,0-.25.2-.27.33a41.56,41.56,0,0,0,0,4.89q0,2.66,0,5.31,0,5.21,0,10.43c0,.6-.28,1.29.4,1.75,0,.55.05,1.1.07,1.65a4.79,4.79,0,0,0,.95,2.25A3,3,0,0,0,445.4,298c.76-.05,1.2.66,2,.54a30.55,30.55,0,0,1,4.68,0H550c.59,0,1.06-.09,1.07.6.14,6.23,0,12.48,0,18.72,0,.83,0,.83-.74.84-13.52.09-27,0-40.56,0H446.4c-.61,0-1.32.3-1.83-.17-.72-.67-2.6-.26-3.49-.3-.29,0-.42-.25-.66-.35a1.8,1.8,0,0,0-.81-.11,2.19,2.19,0,0,1-.88-.2c-.36-.15-.36-.39-.85-.29s-1-.34-1.49-.46-1,0-1.24-.48c-.63.24-.83-.76-1.47-.51-.46.18-.69-.27-1-.45-.56-.27-1.1-.28-1.56-.76-.69-.72-1.65-1-2.33-1.8a33.18,33.18,0,0,0-2.42-2.41,5,5,0,0,1-1.49-2.27,1.69,1.69,0,0,0-.54-.73,1.08,1.08,0,0,1-.44-1c.07-.37-.35-.58-.36-.8,0-.65-.78-1-.62-1.69.12-.52-.63-.83-.5-1.48.06-.29-.35-.65-.42-1a5.94,5.94,0,0,1,0-1.19c-1.17-.74.15-2.6-1-3.44V233.43a23.38,23.38,0,0,1,0-3.82c.07-.43.35-.82.45-1.25.14-.59-.22-1.28.27-1.81s.12-1.06.22-1.59c.78-.45.15-1.57,1-2-.21-.68.23-1.17.49-1.72.42-.89,1.32-2,1.44-3,.7-.52.89-1.42,1.47-2,.89-.92,1.79-1.83,2.72-2.71a4.12,4.12,0,0,1,1.2-.9c.45-.23.71-.73,1.16-.92s.84-.29,1.24-.49a13,13,0,0,1,1.41-.83c.38-.14.66-.38,1-.53s.61,0,.94-.06.49-.53.88-.49c.86.1,1.52-.85,2.44-.48.78-.7,1.64-.36,2.56-.47a3.69,3.69,0,0,0,.94-.36,2.17,2.17,0,0,1,1.22-.1c.92.08,1.93,0,2.86,0,1.15,0,2.18-.6,3.35-.55,6.34.26,12.75,0,19.1,0h79.52c2,0,2.25.33,2.24,2.3,0,5.6,0,11.2,0,16.8,0,1.32-.14,1.08-1,1.08-26.57.06-53.14,0-79.72,0H448.08c-.43.68-1.13.37-1.72.5a3.32,3.32,0,0,0-1.38.7c-.78.68-1.49,1.45-2.22,2.19-.1.1-.23.28-.2.39.2.75-.64,1.2-.52,2,.08.5-.63.84-.47,1.48a13.48,13.48,0,0,1,0,2.93v2.8c0,1.93-.07,3.86,0,5.79a10.65,10.65,0,0,0,.18,3.28l3.1.05c13.62.11,27.25,0,40.87,0h41.59c7.77,0,15.59-.26,23.36,0a.49.49,0,0,1,.32.28,7.61,7.61,0,0,1,0,2.24v7.47c0,3.22.2,6.51,0,9.72a1.4,1.4,0,0,1-.94.92c-14,.22-28,0-42.07,0Z"/><path class="cls-2" d="M327,318.72H283.69c-4,0-8.07.11-12.1,0-.26,0-.41-.16-.4-.46.15-3.53,0-7.09,0-10.62V232.76c0-8.05-.1-16.11,0-24.16a1.21,1.21,0,0,1,1.1-1.23c6.82-.14,13.65,0,20.48,0h82.38a6.83,6.83,0,0,1,2.46,0,9.19,9.19,0,0,0,4.09.42c1,0,2.75-.29,3.49.45.2.2.77,0,1.16.06s1.07-.19,1.57.29,1.06.11,1.59.19c.43.81,1.56.17,2,1,.78-.27,1.28.4,1.91.62.34.11.64.38,1.05.35a.78.78,0,0,1,.43.11c.39.24.54.82,1.09.83s.67.71,1.23.52a6,6,0,0,0,1.47,1.07,7.76,7.76,0,0,1,1.72,1.64c.28.28.78.55.8.85a1.79,1.79,0,0,0,.91,1.3,4.43,4.43,0,0,1,.83,1.35c.19.35.29,1,.68,1.16-.23.63.76.83.51,1.47.39.17.73,1,.88,1.42s-.06,1.12.48,1.37a3.87,3.87,0,0,0,.1,1.16,15,15,0,0,1,.5,2.55c.13.55.6,1,.46,1.62a6.53,6.53,0,0,0,0,1.67c0,.53.65.84.5,1.49a12.72,12.72,0,0,0,0,2.68v55.3c0,1.11,0,2.22.05,3.31,0,.75-.66,1.34-.56,2.09a14.23,14.23,0,0,1,0,2.4c0,.29-.24.42-.35.66a1.74,1.74,0,0,0-.11.81,2.18,2.18,0,0,1-.19.88c-.15.36-.39.36-.29.85s-.33,1-.46,1.49,0,1-.48,1.25c.2.56-.56.74-.51,1.23a1.25,1.25,0,0,1-.49,1.24c.1.77-.75.94-1,1.52a5.73,5.73,0,0,1-.61,1.42,18.85,18.85,0,0,1-2,2.08l-2.35,2.35c-.77-.07-1,.77-1.52,1-.71.26-1.33.71-2,.94-.49.16-.82.72-1.47.55s-.83.63-1.48.49c-.29-.06-.65.31-1,.44s-.63-.14-.89.17c-.1.12-.22.29-.35.3-.69.1-1.45-.22-2.07.22s-1.37.2-2.05.26-1.58-.18-2.2.49H327Zm9.89-20.16h38.63a38.44,38.44,0,0,1,5.26,0c.67.1,1-.7,1.73-.51.48.13.68-.68,1.24-.47.4-.39.94-.73,1.14-1.2s.4-.65.51-1a4.89,4.89,0,0,0,0-1.42c.59-.36.47-.94.47-1.48q0-28.78,0-57.56a1.65,1.65,0,0,0-.49-1.48c.29-.7-.42-1.13-.46-1.72a1.37,1.37,0,0,0-.42-1,21.22,21.22,0,0,1-1.86-1.87,4.12,4.12,0,0,0-1.48-.84c-.54-.17-1.19.1-1.66-.31s-1.22-.15-1.84-.15H311.83c-6.26,0-12.51,0-18.77,0-.64,0-.73.07-.74.6-.15,9.1,0,18.21,0,27.31V283c0,5-.22,10.14,0,15.17a.39.39,0,0,0,.45.41c7.32-.17,14.66,0,22,0Z"/><path class="cls-3" d="M195.5,252.48h23.36c.54,0,2.5.36,2.43-.51,0-.4,0-.79,0-1.19-.69-.43-.27-1.18-.49-1.71a4.22,4.22,0,0,1-.48-1.74c0-.41-.35-.82-.43-1.24a6.33,6.33,0,0,0-.12-1c-.1-.27-.34-.43-.41-.71s.06-.48,0-.7-.38-.34-.41-.52c-.07-.37.09-.75,0-1.11s-.27-.42-.42-.74c-.26-.56,0-1.09-.25-1.63a8.64,8.64,0,0,1-.47-1.4c-.2-.57-.55-1.09-.36-1.72.08-.26-.42-.85-.53-1.08a2.24,2.24,0,0,1-.42-1.16.75.75,0,0,0-.3-.58c-.49-.33-.56-.89-.84-1.34s-.81-.54-.76-1.13c-.33-.38-.63-.8-1-1.15s-.91-.44-1.26-.75-.77-1-1.57-.88c-.4.05-1-.39-1.37-.49a2.65,2.65,0,0,1-.61-.18c-.27-.13-.4-.37-.75-.29a17.81,17.81,0,0,1-3.78,0H175.38c-.6,0-1.29-.29-1.76.37a4,4,0,0,0-1.58.21,10.26,10.26,0,0,1-1.59.82,2.2,2.2,0,0,0-.75.5c-.58.57-1.16,1.12-1.72,1.71s-.83,1.27-1.35,1.81A6.71,6.71,0,0,0,166,234a2.11,2.11,0,0,0-.38,1.09,4,4,0,0,1-1,1.85,4.26,4.26,0,0,1-.4,2.05,8.44,8.44,0,0,1-.52,1.89c-.27.49.2,1.26-.46,1.73-.08.06-.05.29-.06.45,0,.54.06,1.05-.43,1.52-.27.26.16.94-.37,1.27-.06,0-.15.11-.16.17-.09.53.1,1-.12,1.47a2.16,2.16,0,0,0-.34,1.44c.06.48-.44.74-.53,1.16-.14.65.25,1-.34,1.62-.25.25-.12,1.08-.24,1.44a3.45,3.45,0,0,0-.35,1.9c-.64.54-.46,1.27-.48,2-.67.43-.46,1.11-.48,1.72s-.62.67-.51,1.25a1.68,1.68,0,0,1,.07.69c-.08.29-.28.33-.41.58s.08.87-.2,1.11c-.53.46-.26,1-.41,1.53a4.16,4.16,0,0,0-.46,2.21c-.64.54-.46,1.27-.48,2-.75.5-.4,1.29-.49,2-.69.43-.39,1.13-.47,1.72-.06.44-.6.69-.49,1.25a1.12,1.12,0,0,1-.38,1.28,10.05,10.05,0,0,0-.29,1.63,2.67,2.67,0,0,0-.27,1.73c-.77.39-.17,1.38-.8,1.83-.06,0-.14.11-.15.17-.1.53.24,1.15-.2,1.59s-.3.89-.26,1.33c.06.6-.71.83-.52,1.49a1.27,1.27,0,0,1-.36,1.29c-.21.21,0,.78-.12,1.13a3.89,3.89,0,0,0-.46,2.21c-.66.53-.44,1.28-.48,2-.61.39-.39,1-.48,1.6s-.58,1-.51,1.6c.05.41-.57.68-.47,1.24a1,1,0,0,1-.22,1.1c-.44.37-.21.89-.23,1.34s-.48.78-.54,1.26.25,1-.42,1.47c0,0,0,.15,0,.23-.07.52.18,1.08-.32,1.56s-.1.91-.16,1.37-.62.68-.51,1.24a1.11,1.11,0,0,1-.36,1.29c-.09.06-.12.29-.09.43.22,1-.81,1.85-.52,2.93.07.28-.56.51-.45,1a.74.74,0,0,1-.3.83c-.06,0-.15.1-.16.17-.1.53.23,1.17-.19,1.59a1.32,1.32,0,0,0-.27,1.32c.11.63-.72.83-.53,1.49a1.24,1.24,0,0,1-.33,1.3c-.21.21-.1.74-.12,1.13s0,.61-.5.61H122.39c-.39,0-.49-.11-.46-.63s-.2-1,.26-1.33a.72.72,0,0,0,.21-.39c.11-.52-.22-1.09.3-1.56.32-.28.2-.64.19-1a1.34,1.34,0,0,1,.29-.94c.36-.61-.15-1.5.53-2,.09-.06.12-.28.12-.42a3,3,0,0,1,.44-1.75c.29-.46-.21-1.26.46-1.72,0-.47-.14-1.09.1-1.38a2.87,2.87,0,0,0,.44-2c.56-.4.38-1,.49-1.6s.66-1.16.49-1.83c.49-.3.38-.78.45-1.26s.36-.87.44-1.35a7.22,7.22,0,0,1,.3-1.45,2.26,2.26,0,0,0,.22-1.59c1-.57,0-1.91,1-2.49,0,0,0-.15,0-.23.07-.52-.18-1.08.32-1.56s.05-1,.19-1.47.56-.65.47-1.14c-.14-.74.39-1.09.49-1.74s-.18-1.11.39-1.48a3.51,3.51,0,0,1,.51-1.71c.21-.46-.19-1.08.33-1.55.31-.29.19-.65.19-1a1.43,1.43,0,0,1,.29-.94c.33-.61-.14-1.51.54-2,.23-.15.11-.8.14-1a7.54,7.54,0,0,1,.42-1.14c.17-.57-.1-1.33.46-1.73.08-.06.06-.29.06-.44,0-.54-.15-1.13.45-1.49l0-1.43c.81-.37.14-1.39.82-1.82a.32.32,0,0,0,.14-.18c.08-.41-.11-.82,0-1.22s.49-.67.5-1.29a1.67,1.67,0,0,1,.15-1c.17-.32.45-.52.33-.93a1.4,1.4,0,0,1,.36-1.29c.26-.33,0-1,.13-1.35a5.29,5.29,0,0,0,.44-2c.66-.43.47-1.11.48-1.72,0-.41.45-.63.52-1,.11-.61-.2-1,.31-1.53s-.24-1.43.53-1.92c-.09-.72.46-1.26.55-1.93s-.13-1.13.47-1.49l0-1.43c1-.57,0-1.91,1-2.48-.28-.89.4-1.66.48-2.51a2.26,2.26,0,0,1,.16-1c.16-.32.46-.52.34-.93a1.07,1.07,0,0,1,.4-1.27c.08-.06.05-.29.06-.45a1.85,1.85,0,0,1,.43-1.52c.27-.26-.15-.93.36-1.28a.58.58,0,0,0,.16-.4c0-.4,0-.8,0-1.2.82-.35.13-1.41.85-1.81.13-.58.05-1.24.58-1.68-.17-.6.44-1,.43-1.48s.45-1,.51-1.48.7-.68.51-1.23c.54-.47.62-1.18.95-1.77s.71-1.25,1-1.89a6.76,6.76,0,0,1,.88-1.65c.08-.09,0-.31,0-.46s.1-.12.16-.17c.62-.48.78-1.24,1.28-1.81s1-.67.94-1.35l1.51-1.53,1.36-1.36a8.25,8.25,0,0,1,2-1.76c.69-.34,1.06-1,1.75-1.32.48-.24,1.08-.42,1.53-.7s.6-.87,1.22-.8c.35-.81,1.41-.13,1.81-.85.68,0,1.13-.77,1.93-.61.31.06.52-.56,1-.46a.79.79,0,0,0,.84-.28.71.71,0,0,1,.4-.19c.61-.12,1.32.27,1.84-.18s1.36-.23,2-.29c.92-.09,2.23.3,3-.34.25-.21.74-.15,1.12-.15h33.35a2.62,2.62,0,0,1,1.17.07,5.3,5.3,0,0,0,2.83.42,5.91,5.91,0,0,1,2.57.44c.41.17,1.07-.08,1.36.16s1.79.16,2,.48c.38.71,1.3,0,1.66.67.65.15,1.14.8,1.89.64.48.36,1.17.38,1.55.89.51.69,1.71.89,2.4,1.41.34.26.55.64.89.89s.92.33,1.23.74a11.46,11.46,0,0,0,1.17,1.2c.45.45.93.88,1.35,1.36s1.17,1,1.49,1.78c.25.61.91,1.06,1.39,1.58-.13.9,1.15,1.07,1,2,1.41,1.68,2,3.78,3.22,5.62-.11.81.51,1.39.68,2.12.73.4-.06,1.49.83,1.81-.1.67.29,1,.48,1.6.13.4,0,.86.36,1.19s-.13,1.13.53,1.45A4.23,4.23,0,0,0,240,237a3.89,3.89,0,0,1,.46,2.21c.66.53.44,1.28.48,2,.76.5.39,1.29.5,2,.69.43.36,1.14.48,1.72.07.35.44.67.44,1,0,.79.8,1.37.51,2.2a3.35,3.35,0,0,1,.48,2.2c.66.53.44,1.28.48,2,.76.49.32,1.46.67,2.15a1.6,1.6,0,0,1,.29.93c0,.48-.1.86.38,1.18.09.06.11.29.09.43-.09.76.36,1.25.51,1.94s-.16,1.14.41,1.53c.08.05,0,.3,0,.45a3.42,3.42,0,0,0,0,.79c.08.33.34.51.44.8s-.11.93.33,1.2a.32.32,0,0,1,.14.18c.1.53-.25,1.15.21,1.59s.29.89.26,1.33c-.05.6.72.83.52,1.49a1.4,1.4,0,0,0,.35,1.29c.26.33,0,1,.14,1.35a5.3,5.3,0,0,1,.44,2c.64.44.48,1.11.47,1.72s.63.67.51,1.25a1.32,1.32,0,0,0,.32,1.31c.48.49-.24,1.43.53,1.93-.07.72.45,1.27.56,1.93s-.14,1.13.46,1.49l0,1.43c1,.57,0,1.91,1,2.48.07.41-.12.83,0,1.23s.49.67.5,1.29a1.68,1.68,0,0,0,.15,1c.17.32.45.52.33.93a1.06,1.06,0,0,0,.39,1.27c.17.12.06.79.07,1a1.41,1.41,0,0,0,.41,1c.28.26-.15.94.37,1.27.07,0,.15.1.16.17.09.53-.23,1.17.19,1.59a1.35,1.35,0,0,1,.27,1.33c-.07.48.44.74.53,1.16.15.65-.26,1,.34,1.63.21.21,0,.77.13,1.13a4,4,0,0,1,.46,2.21c.64.54.46,1.27.48,2,.66.43.47,1.11.48,1.72s.63.67.51,1.25,0,.7.27,1.2,0,.86.26,1.2.48.42.41.79a3,3,0,0,0,.44,1.74c.23.53-.18,1.26.48,1.74.12.08.05.45,0,.69a1.41,1.41,0,0,0,.47,1.26c.24.23,0,.68-.37.69-3.56.13-7.15,0-10.72,0H239.14c-.59,0-.66-.36-.57-.77.14-.62-.7-.83-.52-1.49a1.25,1.25,0,0,0-.34-1.3c-.21-.21,0-.77-.13-1.13a4,4,0,0,1-.46-2.21c-.64-.54-.46-1.27-.48-2-.66-.43-.47-1.11-.48-1.72s-.62-.67-.51-1.25.17-1-.34-1.29c-.09-.06-.12-.28-.11-.42a5.88,5.88,0,0,0-.52-1.94c-.13-.54.18-1.14-.4-1.52,0-.47.15-1.09-.09-1.39a2.88,2.88,0,0,1-.44-2c-.67-.43-.46-1.11-.48-1.72s-.62-.67-.51-1.25c.15-.77-.38-1.08-.49-1.75s.21-1.11-.37-1.48c.1-.69-.44-1.27-.55-1.93s.11-1.14-.47-1.49l0-1.43c-1-.57,0-1.91-1-2.48.34-1.06-.65-1.9-.48-2.92.1-.59-.7-.83-.51-1.49a1.41,1.41,0,0,0-.37-1.29c-.23-.3.09-1-.13-1.36a1.86,1.86,0,0,1-.43-1.5c.13-.49-.37-.73-.49-1.15s.31-1.13-.21-1.42a3.1,3.1,0,0,0-1.39-.09H177.8c-4.42,0-8.88.2-13.3,0a.39.39,0,0,1-.34-.51c0-.3-.12-.63.19-.88.12-.09.3-.27.27-.35-.28-.9.4-1.91.53-2.79a8.39,8.39,0,0,1,.39-1.25c.1-.35,0-1,.2-1.25.53-.68.16-1.39.35-2.13.1-.38.42-.6.5-1s-.09-.74,0-1.11c.77-.49.37-1.29.51-1.95.61-.38.36-.93.44-1.5s.6-.94.51-1.47a1.18,1.18,0,0,1,.39-1.28c.12-.09.11-.46.06-.67-.2-.82.84-1.36.49-2.2.33-.3.52-.8,1.1-.76,4.16.23,8.4,0,12.57,0Z"/><path class="cls-2" d="M550.56,388.92v43.94c0,4.15,0,8.31,0,12.46,0,.48-.11.59-.5.6-2.73.05-5.47,0-8.21,0s-5.58.11-8.35,0c-1.33-.06-2.69.26-4-.17,0-1.27,0-2.54-.05-3.82,0-6.89,0-13.78,0-20.66V410.49c0-3.58.23-7.24,0-10.81a.43.43,0,0,0-.29-.31c-5.79-.26-11.65,0-17.45,0H439.86c-.63,0-.66,0-.66.68q0,11.42,0,22.85v17a42.59,42.59,0,0,1,0,5.71c0,.11-.2.23-.33.27a9.48,9.48,0,0,1-2.47,0H418.46c-.86,0-.86,0-.86-1,0-14.63,0-29.25,0-43.88V344.65c0-4.15.15-8.34,0-12.49a.42.42,0,0,1,.39-.48,13.11,13.11,0,0,1,2.64,0h18c.45,0,.58.12.58.52.11,15.2.05,30.4,0,45.6,0,.79,2.86.44,3.46.44h76.66c3.25,0,6.58.21,9.82,0a.43.43,0,0,0,.29-.31c.17-3.81,0-7.65,0-11.46V354.92c0-7.61-.17-15.24,0-22.84,0-.26.16-.41.45-.4h19.68c.85,0,1-.23,1,1.08q0,21.9,0,43.79Z"/><path class="cls-2" d="M354.46,445.92H305c-.93-1-2.12-.26-3.16-.47-.45-.09-.68-.61-1.24-.5a1.11,1.11,0,0,1-1.28-.37c-.29-.44-1.35.18-1.76-.35s-1,0-1.28-.35-.82-.38-1.2-.63a15.11,15.11,0,0,0-2.16-1.13,8.21,8.21,0,0,1-2.47-1.6c-.54-.51-1.37-.71-1.82-1.38-.34-.51-1-.73-1.14-1.45s-.95-.75-1-1.52c0-.57-1-.74-.92-1.52-.46-.21-.6-.94-.82-1.36s-.4-1-.67-1.49a2.09,2.09,0,0,1-.37-.76,2.59,2.59,0,0,0-.07-.65c-.26-.58-.66-.73-.44-1.47s-.71-.83-.54-1.5c.1-.41.23-1-.31-1.29a.28.28,0,0,1-.14-.18c0-.8,0-1.59,0-2.39-.75-.52-.44-1.31-.44-2q0-32.75,0-65.5c0-.76-.21-1.57.46-2.21.08-.08,0-.31,0-.47.12-.75-.25-1.52.38-2.26.42-.49-.24-1.43.53-1.94.08-.05.08-.31,0-.45-.17-.67.3-1.16.46-1.73s.71-.67.52-1.23c-.13-.39.3-.69.45-1a6.88,6.88,0,0,1,.79-1.58c.4-.48.54-1.16,1-1.5.61-.46.56-1.27,1.15-1.71a13.54,13.54,0,0,0,1.37-1.34c.51-.51,1-1,1.53-1.52.33-.3.92-.2,1.15-.69s.78-.44,1.17-.67c1.29-.74,2.67-1.29,3.94-2.05.52-.31,1.32.13,1.66-.63,1.05.34,1.89-.6,2.92-.5.6.06,1-.69,1.73-.49,1.42.38,2.69-.54,4.11-.46,3,.16,6.08,0,9.11,0h66.26c7.09,0,14.23-.24,21.32,0,.11,0,.27.16.32.28a6.73,6.73,0,0,1,0,2.07v2.39q0,2.49,0,5,0,4.88,0,9.76c0,.65,0,.67-.67.67-24.16.2-48.34,0-72.51,0-6.76,0-13.55-.21-20.3.11-.64.76-1.5.22-2.25.37-.51.77-1.7.22-2.18,1.15a5.47,5.47,0,0,1-1,1,4,4,0,0,0-.91,1.06c-.12.29-.3.52-.43.78-.22.46.09,1.13-.53,1.46,0,.55,0,1.11,0,1.66q0,23.62,0,47.25,0,6.73,0,13.45c0,.38.07.77.11,1.15.68.31.08,1.12.52,1.45s.16.78.5,1,.63.16.8.36a1.65,1.65,0,0,0,1.65.68c.71-.12,1.15.7,2,.51a19.85,19.85,0,0,1,4.19,0h69.51c7,0,14.06.26,21.06,0,.9,0,.48,3.53.48,4.2q0,2.68,0,5.35,0,5.26,0,10.51c0,.46-.11.58-.51.59C387.25,446,370.86,445.92,354.46,445.92Z"/><path class="cls-2" d="M65.29,331.68q24.26,0,48.53,0c4.62,0,9.24.16,13.85,0,1,0,.49,5.71.49,6.34q0,6.61,0,13.23c0,.47-.11.59-.5.59-11.5.08-23,0-34.51,0H80.44a28.28,28.28,0,0,0-4.37,0c-.85.14-.83.84-.79,1.58.07,1.12.08,2.23.08,3.36q0,4.29,0,8.58v69.05c0,2.72-.13,5.47,0,8.19a11.1,11.1,0,0,1,0,2.4c-.17,1.08-.75.91-1.74.91H54.23c-.93,0-.47-2.76-.47-3.31q0-3.51,0-7V361.75c0-2.44,0-4.88,0-7.32,0-.59.28-2-.16-2.45s-2.35-.2-3-.17c-4.86.22-9.77,0-14.63,0H2.64c-.88,0-.72-.75-.72-1.41,0-1.25,0-2.5,0-3.75q0-3.65,0-7.3c0-1.6,0-3.18-.09-4.77,0-.5-.28-2.91.6-2.92,16.31-.11,32.61,0,48.92,0Z"/></g></g></svg>